# AST/ASF file generated using VICON BodyLanguage
# -----------------------------------------------
:version 1.10
:name VICON
:units
  mass 1.0
  length 0.45
  angle deg
:documentation
   .ast/.asf automatically generated from VICON data using
   VICON BodyBuilder and BodyLanguage model FoxedUp or BRILLIANT.MOD
:root
   order TX TY TZ RX RY RZ
   axis XYZ
   position 0 0 0  
   orientation 0 0 0 
:bonedata
  begin
     id 1 
     name lhipjoint
     direction 0.537252 -0.787203 0.302774 
     length 2.29576 
     axis 0 0 0  XYZ
  end
  begin
     id 2 
     name lfemur
     direction 0.34202 -0.939693 0  
     length 7.31114  
     axis 0 0 20  XYZ
    dof rx ry rz
    limits (-160.0 20.0)
           (-70.0 70.0)
           (-60.0 70.0)
  end
  begin
     id 3 
     name ltibia
     direction 0.34202 -0.939693 0   
     length 8.36008   
     axis 0 0 20   XYZ
    dof rx
    limits (-10.0 170.0)
  end
  begin
     id 4 
     name lfoot
     direction 0.0969116 -0.266263 0.959016   
     length 2.16704   
     axis -90 7.62852e-016 20   XYZ
    dof rx rz
    limits (-45.0 90.0)
           (-70.0 20.0)
  end
  begin
     id 5 
     name ltoes
     direction 1.53563e-011 -4.21779e-011 1   
     length 1.08338   
     axis -90 7.62852e-016 20   XYZ
    dof rx
    limits (-90.0 20.0)
  end
  begin
     id 6 
     name rhipjoint
     direction -0.588228 -0.754791 0.290308   
     length 2.39434  
     axis 0 0 0  XYZ 
  end
  begin
     id 7 
     name rfemur
     direction -0.34202 -0.939693 0   
     length 7.45207   
     axis 0 0 -20   XYZ
    dof rx ry rz
    limits (-160.0 20.0)
           (-70.0 70.0)
           (-70.0 60.0)
  end
  begin
     id 8 
     name rtibia
     direction -0.34202 -0.939693 0   
     length 8.03565   
     axis 0 0 -20   XYZ
    dof rx
    limits (-10.0 170.0)
 end
 begin
     id 9 
     name rfoot
     direction -0.107009 -0.294004 0.949795   
     length 2.11509  
     axis -90 -7.62852e-016 -20   XYZ
    dof rx rz
    limits (-45.0 90.0)
           (-20.0 70.0)
  end
  begin
     id 10 
     name rtoes
     direction -1.53533e-011 -4.22004e-011 1   
     length 1.05493   
     axis -90 -7.62852e-016 -20   XYZ
    dof rx
    limits (-90.0 20.0)
  end
  begin
     id 11 
     name lowerback
     direction -0.0115208 0.997969 -0.0626515   
     length 2.03153   
     axis 0 0 0   XYZ
    dof rx ry rz
    limits (-20.0 45.0)
           (-30.0 30.0)
           (-30.0 30.0)
  end
  begin
     id 12 
     name upperback
     direction -0.00423475 0.999974 -0.00583614   
     length 2.03619   
     axis 0 0 0   XYZ
    dof rx ry rz
    limits (-20.0 45.0)
           (-30.0 30.0)
           (-30.0 30.0)
  end
  begin
     id 13 
     name thorax
     direction 0.00289429 0.999728 0.0231573   
     length 2.03921   
     axis 0 0 0   XYZ
    dof rx ry rz
    limits (-20.0 45.0)
           (-30.0 30.0)
           (-30.0 30.0)
  end
  begin
     id 14 
     name lowerneck
     direction 0.0188995 0.987777 0.154721   
     length 1.78836   
     axis 0 0 0   XYZ
    dof rx ry rz
    limits (-20.0 45.0)
           (-30.0 30.0)
           (-30.0 30.0)
  end
  begin
     id 15 
     name upperneck
     direction -0.00612612 0.992995 -0.118   
     length 1.81789   
     axis 0 0 0   XYZ
    dof rx ry rz
    limits (-20.0 45.0)
           (-30.0 30.0)
           (-30.0 30.0)
  end
  begin
     id 16
     name head
     direction -0.00420226 0.998397 -0.0564482  
     length 1.82234  
     axis 0 0 0   XYZ
    dof rx ry rz
    limits (-20.0 45.0)
           (-30.0 30.0)
           (-30.0 30.0)
  end
  begin
     id 17 
     name lclavicle
     direction 0.916488 0.396539 0.0529676  
     length 3.51732  
     axis 0 0 0   XYZ
    dof ry rz
    limits (-20.0 10.0)
           (0.0 20.0)
  end
  begin
     id 18 
     name lhumerus
     direction 1 -4.4896e-011 8.36962e-028   
     length 5.45077   
     axis 180 -30 -90   XYZ
    dof rx ry rz
    limits (-60.0 90.0)
           (-90.0 90.0)
           (-90.0 90.0)
  end
  begin
     id 19
     name lradius
     direction 1 -4.48962e-011 3.01407e-027   
     length 3.05488   
     axis 180 -30 -90   XYZ
    dof rx
    limits (-10.0 170.0)
  end
  begin
     id 20
     name lwrist
     direction 1 -4.49002e-011 4.72961e-027   
     length 1.52744   
     axis -2.72261e-015 90 90   XYZ
    dof ry
    limits (-180.0 0.0)
 end
  begin
     id 21 
     name lhand
     direction 1 -4.4899e-011 9.45681e-027   
     length 0.638818   
     axis -6.0311e-015 90 90   XYZ
    dof rx rz
    limits (-90.0 90.0)
           (-45.0 45.0)
  end
  begin
     id 22 
     name lfingers
     direction 1 -4.48871e-011 1.88632e-026   
     length 0.515032   
     axis -1.20625e-014 90 90   XYZ
    dof rx
    limits (0.0 90.0)
  end
  begin
     id 23
     name lthumb
     direction 0.707107 -6.34964e-011 0.707107   
     length 0.739485   
     axis -90 45 6.32835e-014   XYZ
    dof rx rz
    limits (-45.0 45.0)
           (-45.0 45.0)
  end
  begin
     id 24 
     name rclavicle
     direction -0.949427 0.303202 0.0815894   
     length 3.76167  
     axis 0 0 0   XYZ 
    dof ry rz
    limits (-10.0 20.0)
           (-20.0 0.0)
  end
  begin
     id 25 
     name rhumerus
     direction -1 -4.48971e-011 -6.43969e-018  
     length 4.88702   
     axis 180 30 90   XYZ
    dof rx ry rz
    limits (-90.0 60.0)
           (-90.0 90.0)
           (-90.0 90.0)
  end
  begin
     id 26 
     name rradius
     direction -1 -4.48987e-011 5.46662e-027   
     length 3.22603   
     axis 180 30 90   XYZ
    dof rx
    limits (-10.0 170.0)
  end
  begin
     id 27 
     name rwrist
     direction -1 -4.48956e-011 4.72476e-027   
     length 1.61302   
     axis -2.72261e-015 -90 -90   XYZ
    dof ry
    limits (-180.0 0.0)
  end
  begin
     id 28
     name rhand
     direction -1 -4.4889e-011 9.43571e-027   
     length 0.716293   
     axis -6.0311e-015 -90 -90   XYZ
    dof rx rz
    limits (-90.0 90.0)
           (-45.0 45.0)
  end
  begin
     id 29
     name rfingers
     direction -1 -4.48887e-011 1.88701e-026   
     length 0.577494   
     axis -1.20625e-014 -90 -90   XYZ
    dof rx
    limits (0.0 90.0)
  end
  begin
     id 30
     name rthumb
     direction -0.707107 -6.34825e-011 0.707107   
     length 0.829169   
     axis -90 -45 -6.32835e-014   XYZ
    dof rx rz
    limits (-45.0 45.0)
           (-45.0 45.0)
  end
:hierarchy
  begin
    root lhipjoint rhipjoint lowerback
    lhipjoint lfemur
    lfemur ltibia
    ltibia lfoot
    lfoot ltoes
    rhipjoint rfemur
    rfemur rtibia
    rtibia rfoot
    rfoot rtoes
    lowerback upperback
    upperback thorax
    thorax lowerneck lclavicle rclavicle
    lowerneck upperneck
    upperneck head
    lclavicle lhumerus
    lhumerus lradius
    lradius lwrist
    lwrist lhand lthumb
    lhand lfingers
    rclavicle rhumerus
    rhumerus rradius
    rradius rwrist
    rwrist rhand rthumb
    rhand rfingers
  end

#!OML:ASF F:\VICON\USERDATA\INSTALL\rory3\rory3.ASF
:FULLY-SPECIFIED
:DEGREES
3377
root 1.1578 18.5335 1.47393 -170.931 66.372 -182.246
lowerback -9.40684 6.73024 1.64755
upperback -1.80467 8.97451 -2.58742
thorax 4.01563 4.52535 -2.41326
lowerneck -19.1017 -3.84004 -1.04046
upperneck 24.3731 -6.12112 5.24298
head 11.2967 -2.00792 1.19229
rclavicle -2.56308e-014 -1.13307e-014
rhumerus 50.6875 6.45476 -89.6754
rradius 30.5387
rwrist 235.443
rhand -24.3337 -5.45248
rfingers 7.12502
rthumb 2.15506 -35.4213
lclavicle -2.56308e-014 -1.13307e-014
lhumerus 34.2475 -32.8057 47.261
lradius 78.5225
lwrist 10.7725
lhand -15.3079 39.6578
lfingers 7.12502
lthumb 10.8678 69.3565
rfemur -7.82182 -30.1136 25.3831
rtibia 3.29313
rfoot -6.17572 9.973
rtoes -4.202
lfemur -20.5877 -1.75532 -14.1751
ltibia 17.3186
lfoot -8.48004 -14.1725
ltoes -28.617
3378
root 1.15529 18.5346 1.46435 -171.136 66.746 -182.433
lowerback -9.42281 6.691 1.60395
upperback -1.80715 8.92783 -2.61029
thorax 4.01609 4.50192 -2.41829
lowerneck -18.9834 -3.88032 -1.10596
upperneck 24.3268 -6.18841 5.3714
head 11.2663 -2.03084 1.24115
rclavicle 9.72802e-014 -1.05356e-014
rhumerus 50.6983 6.6364 -89.3881
rradius 30.5793
rwrist 235.258
rhand -24.4197 -5.30305
rfingers 7.12502
rthumb 2.07198 -35.2727
lclavicle 9.72802e-014 -1.05356e-014
lhumerus 34.2816 -32.8169 47.1801
lradius 78.4691
lwrist 10.8289
lhand -15.2309 39.6591
lfingers 7.12502
lthumb 10.9421 69.354
rfemur -7.74812 -29.7672 25.1698
rtibia 3.24821
rfoot -6.16772 9.93866
rtoes -4.14827
lfemur -20.471 -1.61182 -14.3115
ltibia 17.3247
lfoot -8.55061 -13.9959
ltoes -28.6754
3379
root 1.1538 18.536 1.45219 -171.314 67.1287 -182.608
lowerback -9.49618 6.63902 1.56647
upperback -1.78818 8.86345 -2.63665
thorax 4.07104 4.46977 -2.42433
lowerneck -18.9125 -3.9 -1.04616
upperneck 24.2617 -6.23538 5.37872
head 11.2282 -2.04976 1.22693
rclavicle 8.56638e-014 1.63003e-014
rhumerus 50.6912 6.72603 -89.423
rradius 30.56
rwrist 235.332
rhand -24.3596 -5.16312
rfingers 7.12502
rthumb 2.13006 -35.1322
lclavicle 8.56638e-014 1.63003e-014
lhumerus 34.275 -32.75 47.1126
lradius 78.4183
lwrist 10.9714
lhand -15.2431 39.7792
lfingers 7.12502
lthumb 10.9303 69.4747
rfemur -7.80147 -29.4015 24.9958
rtibia 3.38461
rfoot -6.21301 9.94031
rtoes -4.15023
lfemur -20.3535 -1.55683 -14.4242
ltibia 17.293
lfoot -8.59348 -13.7292
ltoes -28.5892
3380
root 1.15274 18.5352 1.44164 -171.535 67.5692 -182.802
lowerback -9.56661 6.59682 1.49819
upperback -1.73962 8.81465 -2.6594
thorax 4.15116 4.44469 -2.40625
lowerneck -18.9991 -3.90574 -0.921189
upperneck 24.2999 -6.26572 5.2914
head 11.2529 -2.06161 1.16825
rclavicle 1.09419e-013 -9.54166e-015
rhumerus 50.7296 6.63713 -89.7724
rradius 30.51
rwrist 235.713
rhand -24.1246 -5.22133
rfingers 7.12502
rthumb 2.35699 -35.1881
lclavicle 1.09419e-013 -9.54166e-015
lhumerus 34.4134 -32.6891 46.9171
lradius 78.2489
lwrist 11.0472
lhand -15.4463 39.7219
lfingers 7.12502
lthumb 10.7343 69.4276
rfemur -7.84438 -28.9768 24.8149
rtibia 3.56743
rfoot -6.28702 9.92228
rtoes -4.10833
lfemur -20.1889 -1.40263 -14.5632
ltibia 17.2263
lfoot -8.61872 -13.463
ltoes -28.6042
3381
root 1.15183 18.5354 1.43168 -171.667 68.0009 -182.924
lowerback -9.6864 6.5642 1.43075
upperback -1.68776 8.77471 -2.61771
thorax 4.25241 4.42281 -2.31552
lowerneck -19.0279 -3.93708 -0.9935
upperneck 24.3089 -6.28656 5.26757
head 11.264 -2.08218 1.16757
rclavicle 3.00662e-014 -4.35338e-014
rhumerus 50.7272 6.83235 -89.2851
rradius 30.696
rwrist 235.343
rhand -23.8952 -5.2068
rfingers 7.12502
rthumb 2.57854 -35.171
lclavicle 3.00662e-014 -4.35338e-014
lhumerus 34.5824 -32.6583 46.7787
lradius 78.0133
lwrist 11.0381
lhand -15.4798 39.4409
lfingers 7.12502
lthumb 10.702 69.1483
rfemur -7.89566 -28.5554 24.6764
rtibia 3.70745
rfoot -6.36564 9.911
rtoes -4.23535
lfemur -20.0423 -1.2106 -14.6697
ltibia 17.1598
lfoot -8.66278 -13.2527
ltoes -28.822
3382
root 1.14907 18.5348 1.4242 -171.592 68.4093 -182.813
lowerback -9.71097 6.51218 1.42557
upperback -1.66597 8.70173 -2.5585
thorax 4.27428 4.38528 -2.25867
lowerneck -18.9766 -3.94428 -0.987518
upperneck 24.2781 -6.28614 5.21746
head 11.2399 -2.09149 1.14859
rclavicle 9.33046e-015 2.34566e-014
rhumerus 50.7221 6.95449 -89.1218
rradius 30.7802
rwrist 235.329
rhand -23.8378 -5.05131
rfingers 7.12502
rthumb 2.63405 -35.0148
lclavicle 9.33046e-015 2.34566e-014
lhumerus 34.6661 -32.5773 46.7533
lradius 77.7845
lwrist 10.9859
lhand -15.5824 39.4286
lfingers 7.12502
lthumb 10.603 69.1411
rfemur -8.02693 -28.1333 24.6748
rtibia 3.96128
rfoot -6.47991 9.86591
rtoes -4.42928
lfemur -19.9118 -1.13636 -14.6352
ltibia 17.0802
lfoot -8.64724 -12.9627
ltoes -28.6556
3383
root 1.14608 18.5353 1.41576 -171.655 68.831 -182.844
lowerback -9.71226 6.45026 1.4127
upperback -1.6523 8.61965 -2.54942
thorax 4.28121 4.34405 -2.25358
lowerneck -18.8629 -3.96295 -0.984753
upperneck 24.2197 -6.31782 5.24415
head 11.198 -2.1067 1.15418
rclavicle -1.29757e-013 4.96962e-015
rhumerus 50.7117 6.98066 -89.3409
rradius 30.7199
rwrist 235.61
rhand -23.6426 -5.21572
rfingers 7.12502
rthumb 2.8225 -35.1768
lclavicle -1.29757e-013 4.96962e-015
lhumerus 34.6479 -32.4957 46.7968
lradius 77.6983
lwrist 11.092
lhand -15.9523 39.6575
lfingers 7.12502
lthumb 10.2462 69.3879
rfemur -8.12653 -27.7099 24.598
rtibia 4.16024
rfoot -6.50107 9.80242
rtoes -4.48544
lfemur -19.7774 -1.14447 -14.653
ltibia 17.0144
lfoot -8.65129 -12.5808
ltoes -28.2817
3384
root 1.14285 18.5361 1.40733 -172.059 69.3183 -183.262
lowerback -9.67959 6.38551 1.26328
upperback -1.68234 8.55017 -2.56417
thorax 4.20836 4.30782 -2.20443
lowerneck -18.7876 -3.98346 -1.11354
upperneck 24.2355 -6.33593 5.3518
head 11.1987 -2.11385 1.2133
rclavicle 1.34677e-014 -8.94531e-015
rhumerus 50.5999 7.45362 -88.6284
rradius 30.9703
rwrist 234.852
rhand -23.5987 -5.28426
rfingers 7.12502
rthumb 2.86491 -35.2448
lclavicle 1.34677e-014 -8.94531e-015
lhumerus 34.487 -32.4364 46.9299
lradius 77.6326
lwrist 11.1844
lhand -16.0752 39.7326
lfingers 7.12502
lthumb 10.1276 69.4688
rfemur -8.22026 -27.246 24.3523
rtibia 4.31597
rfoot -6.46329 9.75335
rtoes -4.01174
lfemur -19.6439 -1.06208 -14.8475
ltibia 16.9507
lfoot -8.69064 -12.2053
ltoes -28.4241
3385
root 1.13987 18.5381 1.39839 -172.295 69.7655 -183.472
lowerback -9.65858 6.33079 1.19435
upperback -1.68847 8.48387 -2.55705
thorax 4.17565 4.2738 -2.1726
lowerneck -18.7674 -4.02407 -1.22367
upperneck 24.2653 -6.3851 5.43755
head 11.2153 -2.13504 1.25575
rclavicle -1.37397e-013 -8.34896e-015
rhumerus 50.5275 8.36756 -86.7888
rradius 31.5745
rwrist 232.822
rhand -23.7792 -4.87431
rfingers 7.12502
rthumb 2.6906 -34.8371
lclavicle -1.37397e-013 -8.34896e-015
lhumerus 34.4365 -32.3515 47.1337
lradius 77.3855
lwrist 10.9736
lhand -15.7414 39.5117
lfingers 7.12502
lthumb 10.4496 69.232
rfemur -8.27204 -26.8121 24.1818
rtibia 4.45529
rfoot -6.48276 9.71827
rtoes -3.81958
lfemur -19.4919 -0.958487 -14.9581
ltibia 16.8995
lfoot -8.72995 -11.8815
ltoes -28.5952
